<svg width="457" height="151" viewBox="0 0 457 151" fill="none" xmlns="http://www.w3.org/2000/svg">
<path d="M58.2871 140.91C58.2871 141.841 57.1413 143.273 54.8496 145.207C52.5579 147.069 50.5527 148 48.834 148H0.0644531C9.87565 108.469 16.8581 62.4564 21.0117 9.96289C21.0117 9.10352 22.1576 7.77865 24.4492 5.98828C26.7409 4.1263 28.7103 3.15951 30.3574 3.08789C51.8418 1.29753 68.2415 0.402344 79.5566 0.402344C69.2441 44.9466 62.1543 91.7826 58.2871 140.91ZM136.275 99.6602L134.771 121.252C134.771 125.191 135.488 128.342 136.92 130.705C138.352 133.068 141.002 134.536 144.869 135.109C144.153 139.621 142.971 143.309 141.324 146.174C128.505 149.182 117.584 150.686 108.561 150.686C99.6087 150.686 92.6621 149.468 87.7207 147.033C82.8509 144.527 80.416 140.66 80.416 135.432C80.416 130.204 81.2038 123.078 82.7793 114.055C84.4264 104.96 85.25 98.5143 85.25 94.7188C85.25 90.8516 84.3906 87.6289 82.6719 85.0508C80.9531 82.4727 78.6257 81.0404 75.6895 80.7539C76.0475 77.5312 77.265 74.6667 79.3418 72.1602C85.3574 69.0091 90.0482 64.1035 93.4141 57.4434C96.7799 50.7832 98.4629 43.5859 98.4629 35.8516C98.4629 24.25 94.9896 14.8327 88.043 7.59961C88.043 6.52539 89.1888 5.02148 91.4805 3.08789C93.7721 1.1543 95.7415 0.1875 97.3887 0.1875C110.208 0.1875 121.308 2.83724 130.689 8.13672C135.416 10.8581 139.176 14.582 141.969 19.3086C144.762 24.0352 146.158 29.4779 146.158 35.6367C146.158 45.7344 141.539 54.3281 132.301 61.418C123.062 68.5078 110.709 72.5898 95.2402 73.6641L104.908 74.5234C114.361 75.4544 121.952 77.9609 127.682 82.043C133.411 86.0534 136.275 91.9258 136.275 99.6602ZM218.346 148H168.287C177.883 113.267 184.973 66.8607 189.557 8.78125C189.557 7.85026 190.738 6.45378 193.102 4.5918C195.465 2.72982 197.47 1.79883 199.117 1.79883H248.961C238.792 45.1257 231.702 91.4603 227.691 140.803C227.691 141.734 226.546 143.166 224.254 145.1C221.962 147.033 219.993 148 218.346 148ZM275.816 94.1816C276.891 92.1048 278.932 90.2428 281.939 88.5957C284.947 86.9486 287.704 86.125 290.211 86.125C286.702 116.776 284.16 134.787 282.584 140.158C281.939 141.662 280.65 143.345 278.717 145.207C276.783 147.069 275.208 148 273.99 148H232.633C241.155 141.626 249.176 133.677 256.695 124.152C264.215 114.556 270.589 104.566 275.816 94.1816ZM311.803 147.57C321.256 109.543 328.238 63.6738 332.75 9.96289C332.75 9.10352 333.896 7.77865 336.188 5.98828C338.479 4.1263 340.449 3.15951 342.096 3.08789C363.58 1.29753 379.944 0.402344 391.188 0.402344C380.947 44.5169 373.893 91.6035 370.025 141.662C370.025 142.665 368.88 144.133 366.588 146.066C364.296 147.928 362.291 148.859 360.572 148.859C348.111 148.859 331.855 148.43 311.803 147.57ZM376.041 148.215C383.919 145.422 390.829 139.549 396.773 130.598C402.717 121.574 405.689 112.515 405.689 103.42C405.689 91.1022 400.032 82.6159 388.717 77.9609C387.571 77.2448 386.998 76.0632 386.998 74.416C386.998 70.5488 388.144 68.293 390.436 67.6484C395.52 66.2878 399.853 61.776 403.434 54.1133C407.014 46.3789 408.805 37.821 408.805 28.4395C408.805 18.9863 405.797 12.0397 399.781 7.59961C399.781 6.52539 400.999 5.02148 403.434 3.08789C405.868 1.1543 407.945 0.1875 409.664 0.1875C432.438 1.69141 447.118 8.85286 453.707 21.6719C455.712 25.5391 456.715 29.9434 456.715 34.8848C456.715 39.8262 455.462 44.4095 452.955 48.6348C450.52 52.86 447.369 56.4049 443.502 59.2695C439.706 62.0625 435.23 64.5332 430.074 66.6816C420.764 70.5488 410.882 73.0195 400.426 74.0938C404.723 73.8073 408.232 73.6641 410.953 73.6641C424.56 73.6641 435.23 76.5286 442.965 82.2578C450.699 87.9154 454.566 96.0078 454.566 106.535C454.566 112.622 453.242 118.173 450.592 123.186C448.014 128.199 444.612 132.352 440.387 135.646C436.233 138.869 431.363 141.626 425.777 143.918C415.536 148.072 404.186 150.148 391.725 150.148C386.282 150.148 381.054 149.504 376.041 148.215Z" fill="url(#paint0_linear_10_3)"/>
<defs>
<linearGradient id="paint0_linear_10_3" x1="227.5" y1="-56" x2="227.5" y2="207" gradientUnits="userSpaceOnUse">
<stop stop-color="#FF0000"/>
<stop offset="1"/>
</linearGradient>
</defs>
</svg>
